<svg width="25" height="30" viewBox="0 0 25 30" fill="none" xmlns="http://www.w3.org/2000/svg">
<g filter="url(#filter0_d_4690_12121)">
<path d="M20.1986 11.7541C20.1986 16.0589 15.2105 21.3199 12.404 21.3199C10.1299 21.3199 4.60938 16.0589 4.60938 11.7541C4.60938 7.44923 8.09913 3.95947 12.404 3.95947C16.7088 3.95947 20.1986 7.44923 20.1986 11.7541Z" fill="white"/>
<path d="M18.5788 11.6066C18.5788 15.0171 15.8141 17.7818 12.4036 17.7818C8.99316 17.7818 6.22843 15.0171 6.22843 11.6066C6.22843 8.19616 8.99316 5.43143 12.4036 5.43143C15.8141 5.43143 18.5788 8.19616 18.5788 11.6066Z" fill="#D85140"/>
<path d="M10.2429 14.5528C10.1103 14.5528 9.99534 14.5042 9.89791 14.4068C9.80054 14.3094 9.75185 14.1944 9.75185 14.0618V10.2807C9.75185 10.1482 9.80054 10.0332 9.89791 9.93581C9.99534 9.83839 10.1103 9.78968 10.2429 9.78968H10.9795C10.9795 9.39522 11.1141 9.05927 11.3834 8.78183C11.6526 8.50439 11.9845 8.36567 12.379 8.36567C12.7734 8.36567 13.1135 8.50439 13.3991 8.78183C13.6847 9.05927 13.8275 9.39522 13.8275 9.78968H14.5641C14.6967 9.78968 14.8117 9.83839 14.9091 9.93581C15.0065 10.0332 15.0551 10.1482 15.0551 10.2807V14.0618C15.0551 14.1944 15.0065 14.3094 14.9091 14.4068C14.8117 14.5042 14.6967 14.5528 14.5641 14.5528H10.2429ZM12.4035 12.0485C12.798 12.0485 13.138 11.9057 13.4236 11.6201C13.7093 11.3345 13.8521 10.9944 13.8521 10.5999H13.361C13.361 10.8618 13.2669 11.0869 13.0787 11.2751C12.8904 11.4633 12.6654 11.5574 12.4035 11.5574C12.1416 11.5574 11.9166 11.4633 11.7283 11.2751C11.5401 11.0869 11.446 10.8618 11.446 10.5999H10.9549C10.9549 10.9944 11.0977 11.3345 11.3834 11.6201C11.669 11.9057 12.009 12.0485 12.4035 12.0485ZM11.4705 9.78968H13.3365C13.3365 9.5278 13.2465 9.30683 13.0664 9.12677C12.8863 8.94675 12.6654 8.85674 12.4035 8.85674C12.1416 8.85674 11.9207 8.94675 11.7406 9.12677C11.5605 9.30683 11.4705 9.5278 11.4705 9.78968Z" fill="white"/>
</g>
<defs>
<filter id="filter0_d_4690_12121" x="0.609375" y="3.95947" width="23.5898" height="25.3604" filterUnits="userSpaceOnUse" color-interpolation-filters="sRGB">
<feFlood flood-opacity="0" result="BackgroundImageFix"/>
<feColorMatrix in="SourceAlpha" type="matrix" values="0 0 0 0 0 0 0 0 0 0 0 0 0 0 0 0 0 0 127 0" result="hardAlpha"/>
<feOffset dy="4"/>
<feGaussianBlur stdDeviation="2"/>
<feComposite in2="hardAlpha" operator="out"/>
<feColorMatrix type="matrix" values="0 0 0 0 0 0 0 0 0 0 0 0 0 0 0 0 0 0 0.15 0"/>
<feBlend mode="normal" in2="BackgroundImageFix" result="effect1_dropShadow_4690_12121"/>
<feBlend mode="normal" in="SourceGraphic" in2="effect1_dropShadow_4690_12121" result="shape"/>
</filter>
</defs>
</svg>
