<svg width="25" height="25" viewBox="0 0 25 25" fill="none" xmlns="http://www.w3.org/2000/svg">
<path d="M18.0041 20.9626C16.9928 21.9538 15.8886 21.7973 14.8256 21.3278C13.7008 20.8479 12.6688 20.827 11.482 21.3278C9.99595 21.9747 9.21165 21.7869 8.32414 20.9626C3.28806 15.7146 4.03109 7.72255 9.74828 7.43042C11.1415 7.50345 12.1115 8.20249 12.9268 8.26509C14.1445 8.01469 15.3107 7.29478 16.611 7.38868C18.1693 7.51389 19.3457 8.13989 20.1197 9.26671C16.8999 11.2178 17.6636 15.5059 20.6151 16.7058C20.0268 18.2708 19.2632 19.8254 17.9938 20.9731L18.0041 20.9626ZM12.8236 7.36782C12.6688 5.04115 14.5367 3.1214 16.6832 2.93359C16.9825 5.62543 14.2684 7.62865 12.8236 7.36782Z" fill="#1D1D1F"/>
</svg>
