<svg width="25" height="24" viewBox="0 0 25 24" fill="none" xmlns="http://www.w3.org/2000/svg">
<path d="M24.5 12.2644C24.5 11.2778 24.4183 10.5579 24.2415 9.81124H12.7447V14.2643H19.4931C19.3571 15.371 18.6224 17.0376 16.9897 18.1574L16.9668 18.3065L20.6018 21.0661L20.8537 21.0907C23.1666 18.9974 24.5 15.9176 24.5 12.2644Z" fill="#4285F4"/>
<path d="M12.7473 24C16.0535 24 18.829 22.9333 20.8563 21.0935L16.9923 18.1602C15.9583 18.8668 14.5704 19.3602 12.7473 19.3602C9.50921 19.3602 6.76089 17.267 5.78119 14.3738L5.63759 14.3857L1.8578 17.2523L1.80837 17.3869C3.82198 21.3067 7.95811 24 12.7473 24Z" fill="#34A853"/>
<path d="M5.77894 14.3739C5.52043 13.6273 5.37083 12.8273 5.37083 12.0007C5.37083 11.174 5.52043 10.3741 5.76534 9.62745L5.75849 9.46844L1.93133 6.55585L1.80611 6.61422C0.976203 8.24083 0.5 10.0674 0.5 12.0007C0.5 13.9339 0.976203 15.7604 1.80611 17.3871L5.77894 14.3739Z" fill="#FBBC05"/>
<path d="M12.7473 4.63975C15.0466 4.63975 16.5977 5.61303 17.4821 6.42639L20.9379 3.11985C18.8155 1.18662 16.0535 0 12.7473 0C7.95811 0 3.82198 2.69319 1.80837 6.61297L5.76759 9.62621C6.76089 6.73301 9.50921 4.63975 12.7473 4.63975Z" fill="#EB4335"/>
</svg>
