<svg width="86" height="70" viewBox="0 0 86 70" fill="none" xmlns="http://www.w3.org/2000/svg">
<path d="M57.436 69.5111L80.2872 69.5111C83.4407 69.5111 86 66.9518 86 63.7983L86 40.9471C86 37.7937 83.4407 35.2343 80.2872 35.2343L63.1488 35.2343C63.1488 22.6319 73.3976 12.3832 86 12.3832L86 0.957565C67.0964 0.957564 51.7232 16.3307 51.7232 35.2343L51.7232 63.7983C51.7232 66.9518 54.2826 69.5111 57.436 69.5111Z" fill="#26A295"/>
<path d="M5.71337 69.5111L28.5645 69.5111C31.718 69.5111 34.2773 66.9518 34.2773 63.7983L34.2773 40.9471C34.2773 37.7937 31.718 35.2343 28.5646 35.2343L11.4262 35.2343C11.4262 22.6319 21.6749 12.3832 34.2773 12.3832L34.2773 0.957565C15.3737 0.957564 0.000576854 16.3307 0.000575201 35.2343L0.000572704 63.7983C0.000572428 66.9518 2.5599 69.5111 5.71337 69.5111Z" fill="#26A295"/>
</svg>
