<svg width="30" height="30" viewBox="0 0 30 30" fill="none" xmlns="http://www.w3.org/2000/svg">
<g clip-path="url(#clip0_6402_53746)">
<g clip-path="url(#clip1_6402_53746)">
<path d="M15 30C23.2843 30 30 23.2843 30 15C30 6.71573 23.2843 0 15 0C6.71573 0 0 6.71573 0 15C0 23.2843 6.71573 30 15 30Z" fill="#E9E9E9"/>
<path d="M16.8362 19.0735L14.3601 21.1272C13.5038 21.8374 12.5236 22.141 11.4194 22.038C10.3153 21.935 9.40812 21.4554 8.69791 20.5991C7.98769 19.7427 7.68407 18.7625 7.78705 17.6584C7.89004 16.5542 8.36969 15.6471 9.22602 14.9369L11.7021 12.8832L12.729 14.1213L10.2528 16.1749C9.73698 16.6028 9.44824 17.147 9.38663 17.8076C9.32501 18.4682 9.50813 19.0564 9.93597 19.5722C10.3638 20.0881 10.908 20.3768 11.5686 20.4385C12.2292 20.5001 12.8174 20.317 13.3333 19.8891L15.8094 17.8355L16.8362 19.0735ZM12.9255 18.1376L11.8987 16.8996L16.8509 12.7923L17.8778 14.0304L12.9255 18.1376ZM18.0743 18.0467L17.0475 16.8087L19.5236 14.755C20.0395 14.3272 20.3282 13.783 20.3898 13.1224C20.4514 12.4618 20.2683 11.8736 19.8405 11.3577C19.4126 10.8418 18.8684 10.5531 18.2078 10.4915C17.5472 10.4299 16.959 10.613 16.4432 11.0408L13.967 13.0945L12.9402 11.8564L15.4163 9.80277C16.2727 9.09255 17.2529 8.78893 18.357 8.89191C19.4611 8.9949 20.3683 9.47455 21.0785 10.3309C21.7888 11.1872 22.0924 12.1674 21.9894 13.2716C21.8864 14.3757 21.4068 15.2829 20.5504 15.9931L18.0743 18.0467Z" fill="#1C1B1F"/>
</g>
</g>
<defs>
<clipPath id="clip0_6402_53746">
<rect width="30" height="30" fill="white"/>
</clipPath>
<clipPath id="clip1_6402_53746">
<rect width="30" height="30" fill="white"/>
</clipPath>
</defs>
</svg>
