<svg width="30" height="30" viewBox="0 0 30 30" fill="none" xmlns="http://www.w3.org/2000/svg">
<g clip-path="url(#clip0_4760_43027)">
<g clip-path="url(#clip1_4760_43027)">
<path d="M15 30C23.2843 30 30 23.2843 30 15C30 6.71573 23.2843 0 15 0C6.71573 0 0 6.71573 0 15C0 23.2843 6.71573 30 15 30Z" fill="#3D78C3"/>
<path d="M20.0415 7H16.2859C14.0572 7 11.5783 7.93735 11.5783 11.1679C11.5892 12.2936 11.5783 13.3716 11.5783 14.5849H9V18.6877H11.6581V30.499H16.5424V18.6098H19.7662L20.0579 14.5734H16.4582C16.4582 14.5734 16.4663 12.7778 16.4582 12.2564C16.4582 10.9797 17.7866 11.0528 17.8665 11.0528C18.4987 11.0528 19.7278 11.0547 20.0433 11.0528V7H20.0415Z" fill="white"/>
</g>
</g>
<defs>
<clipPath id="clip0_4760_43027">
<rect width="30" height="30" fill="white"/>
</clipPath>
<clipPath id="clip1_4760_43027">
<rect width="30" height="30" fill="white"/>
</clipPath>
</defs>
</svg>
