<svg width="30" height="30" viewBox="0 0 30 30" fill="none" xmlns="http://www.w3.org/2000/svg">
<g clip-path="url(#clip0_6402_53775)">
<g clip-path="url(#clip1_6402_53775)">
<path d="M15 0.299805C23.1186 0.299805 29.7002 6.88141 29.7002 15C29.7002 23.1186 23.1186 29.7002 15 29.7002C6.88141 29.7002 0.299805 23.1186 0.299805 15C0.299805 6.88141 6.88141 0.299805 15 0.299805Z" fill="white" stroke="#EDEDED" stroke-width="0.6"/>
<path d="M5.34908 24.6538L6.71296 19.6961C5.87153 18.2451 5.42905 16.599 5.42958 14.913C5.43178 9.63787 9.74426 5.34618 15.043 5.34618C17.6147 5.34733 20.0284 6.34371 21.8432 8.15208C23.6583 9.96044 24.6574 12.3642 24.6563 14.9205C24.6541 20.1958 20.3414 24.4879 15.0433 24.4879H15.0391C13.4302 24.4874 11.8494 24.0853 10.4453 23.3235L5.34908 24.6538Z" fill="url(#paint0_linear_6402_53775)"/>
<path fill-rule="evenodd" clip-rule="evenodd" d="M12.5538 10.7668C12.3675 10.3543 12.1712 10.3461 11.9939 10.3389C11.8489 10.3327 11.6829 10.333 11.5171 10.333C11.3512 10.333 11.0816 10.3951 10.8536 10.643C10.6255 10.8908 9.98265 11.4901 9.98265 12.7088C9.98265 13.9276 10.8744 15.1052 10.9987 15.2707C11.1231 15.4358 12.72 18.0167 15.2491 19.0096C17.3509 19.8347 17.7786 19.6706 18.2349 19.6293C18.6911 19.588 19.707 19.0302 19.9143 18.4518C20.1217 17.8734 20.1217 17.3777 20.0595 17.2741C19.9973 17.1709 19.8314 17.1089 19.5825 16.9851C19.3337 16.8612 18.1104 16.2619 17.8823 16.1793C17.6542 16.0967 17.4883 16.0554 17.3224 16.3034C17.1565 16.5511 16.6799 17.1089 16.5348 17.2741C16.3896 17.4396 16.2445 17.4603 15.9956 17.3364C15.7468 17.2122 14.9454 16.9509 13.9947 16.107C13.255 15.4505 12.7556 14.6397 12.6105 14.3917C12.4653 14.1439 12.5949 14.0097 12.7197 13.8863C12.8314 13.7753 12.9686 13.5971 13.093 13.4524C13.2172 13.3078 13.2586 13.2046 13.3416 13.0394C13.4245 12.874 13.3831 12.7294 13.3209 12.6055C13.2586 12.4816 12.7751 11.2566 12.5538 10.7668Z" fill="white"/>
<path d="M22.086 7.90642C20.2057 6.03329 17.7056 5.00117 15.0419 5C9.55279 5 5.0858 9.44562 5.0836 14.9099C5.08295 16.6566 5.54138 18.3616 6.41274 19.8646L5 25L10.279 23.6219C11.7335 24.4116 13.3711 24.8277 15.0376 24.8284H15.0418C20.53 24.8284 24.9977 20.382 25 14.9179C25.0009 12.2697 23.966 9.77969 22.086 7.90642ZM15.0419 23.1546H15.0386C13.5532 23.1538 12.0965 22.7568 10.8259 22.0062L10.5236 21.8278L7.3909 22.6455L8.22727 19.6059L8.03026 19.2943C7.20167 17.9827 6.76424 16.467 6.76489 14.9106C6.7667 10.3688 10.4795 6.67392 15.045 6.67392C17.2559 6.67483 19.3338 7.53275 20.8966 9.08964C22.4593 10.6465 23.3192 12.7162 23.3186 14.9173C23.3166 19.4592 19.6037 23.1546 15.0419 23.1546Z" fill="white"/>
</g>
</g>
<defs>
<linearGradient id="paint0_linear_6402_53775" x1="15" y1="25" x2="15" y2="5.00003" gradientUnits="userSpaceOnUse">
<stop stop-color="#20B038"/>
<stop offset="1" stop-color="#60D66A"/>
</linearGradient>
<clipPath id="clip0_6402_53775">
<rect width="30" height="30" fill="white"/>
</clipPath>
<clipPath id="clip1_6402_53775">
<rect width="30" height="30" fill="white"/>
</clipPath>
</defs>
</svg>
