<svg width="30" height="30" viewBox="0 0 30 30" fill="none" xmlns="http://www.w3.org/2000/svg">
<g clip-path="url(#clip0_6402_53716)">
<g clip-path="url(#clip1_6402_53716)">
<path d="M15 30C23.2843 30 30 23.2843 30 15C30 6.71573 23.2843 0 15 0C6.71573 0 0 6.71573 0 15C0 23.2843 6.71573 30 15 30Z" fill="#E9E9E9"/>
<mask id="mask0_6402_53716" style="mask-type:alpha" maskUnits="userSpaceOnUse" x="7" y="7" width="17" height="17">
<rect x="7" y="7" width="17" height="17" fill="#D9D9D9"/>
</mask>
<g mask="url(#mask0_6402_53716)">
<path d="M9.83268 21.1673C9.4431 21.1673 9.10959 21.0286 8.83216 20.7512C8.55473 20.4737 8.41602 20.1402 8.41602 19.7507V11.2507C8.41602 10.8611 8.55473 10.5276 8.83216 10.2501C9.10959 9.9727 9.4431 9.83398 9.83268 9.83398H21.166C21.5556 9.83398 21.8891 9.9727 22.1665 10.2501C22.444 10.5276 22.5827 10.8611 22.5827 11.2507V19.7507C22.5827 20.1402 22.444 20.4737 22.1665 20.7512C21.8891 21.0286 21.5556 21.1673 21.166 21.1673H9.83268ZM15.4993 16.209L9.83268 12.6673V19.7507H21.166V12.6673L15.4993 16.209ZM15.4993 14.7923L21.166 11.2507H9.83268L15.4993 14.7923ZM9.83268 12.6673V11.2507V19.7507V12.6673Z" fill="#1C1B1F"/>
</g>
</g>
</g>
<defs>
<clipPath id="clip0_6402_53716">
<rect width="30" height="30" fill="white"/>
</clipPath>
<clipPath id="clip1_6402_53716">
<rect width="30" height="30" fill="white"/>
</clipPath>
</defs>
</svg>
