<svg width="24" height="25" viewBox="0 0 24 25" fill="none" xmlns="http://www.w3.org/2000/svg">
<rect y="0.566406" width="24" height="24" rx="12" fill="#C51F54"/>
<path d="M11.9992 17.7932C11.9992 17.7932 8.33984 13.0204 8.33984 10.9973C8.33984 10.5167 8.4345 10.0409 8.6184 9.59688C8.8023 9.15291 9.07185 8.7495 9.41165 8.4097C9.75145 8.06989 10.1549 7.80034 10.5988 7.61644C11.0428 7.43254 11.5187 7.33789 11.9992 7.33789C12.4798 7.33789 12.9556 7.43254 13.3996 7.61644C13.8436 7.80034 14.247 8.06989 14.5868 8.4097C14.9266 8.7495 15.1961 9.15291 15.38 9.59688C15.5639 10.0409 15.6586 10.5167 15.6586 10.9973C15.6586 13.0204 11.9992 17.7932 11.9992 17.7932ZM11.9992 12.0428C12.2765 12.0428 12.5424 11.9326 12.7385 11.7366C12.9346 11.5405 13.0448 11.2746 13.0448 10.9973C13.0448 10.72 12.9346 10.454 12.7385 10.258C12.5424 10.0619 12.2765 9.95173 11.9992 9.95173C11.7219 9.95173 11.456 10.0619 11.2599 10.258C11.0638 10.454 10.9537 10.72 10.9537 10.9973C10.9537 11.2746 11.0638 11.5405 11.2599 11.7366C11.456 11.9326 11.7219 12.0428 11.9992 12.0428Z" fill="white"/>
</svg>
