<svg width="25" height="24" viewBox="0 0 25 24" fill="none" xmlns="http://www.w3.org/2000/svg">
<path d="M1.05273 23.4525L2.6705 17.5715C1.67244 15.8503 1.14758 13.8976 1.14821 11.8977C1.15083 5.64023 6.26607 0.549316 12.5511 0.549316C15.6015 0.550688 18.4645 1.73261 20.6171 3.87775C22.7702 6.02287 23.9552 8.87421 23.954 11.9066C23.9513 18.1643 18.8358 23.2556 12.5516 23.2556C12.5511 23.2556 12.5519 23.2556 12.5516 23.2556H12.5465C10.6381 23.255 8.76303 22.7781 7.09763 21.8744L1.05273 23.4525Z" fill="url(#paint0_linear_3155_27251)"/>
<path fill-rule="evenodd" clip-rule="evenodd" d="M9.59863 6.97944C9.37756 6.4901 9.14481 6.48031 8.93449 6.47175C8.76246 6.4644 8.56553 6.46485 8.3689 6.46485C8.17212 6.46485 7.85235 6.53847 7.58193 6.8325C7.31136 7.12654 6.54883 7.83734 6.54883 9.28298C6.54883 10.7288 7.60653 12.1258 7.75396 12.322C7.90154 12.5179 9.79572 15.5794 12.7956 16.7572C15.2887 17.736 15.796 17.5413 16.3372 17.4923C16.8783 17.4433 18.0833 16.7817 18.3293 16.0955C18.5753 15.4095 18.5753 14.8214 18.5015 14.6985C18.4277 14.5761 18.2309 14.5026 17.9357 14.3557C17.6405 14.2087 16.1896 13.4978 15.919 13.3998C15.6484 13.3018 15.4517 13.2529 15.2549 13.547C15.0581 13.8409 14.4928 14.5026 14.3206 14.6985C14.1484 14.8949 13.9763 14.9194 13.6811 14.7724C13.3859 14.625 12.4354 14.3151 11.3077 13.3141C10.4303 12.5353 9.83799 11.5735 9.66581 11.2793C9.49363 10.9854 9.64735 10.8262 9.79541 10.6798C9.92792 10.5481 10.0906 10.3368 10.2382 10.1652C10.3854 9.99359 10.4346 9.87114 10.533 9.67522C10.6314 9.47899 10.5822 9.30743 10.5084 9.16049C10.4346 9.01356 9.86106 7.56045 9.59863 6.97944Z" fill="white"/>
<path d="M20.9052 3.58634C18.6749 1.36438 15.7094 0.140063 12.5498 0.138672C6.03895 0.138672 0.740447 5.41218 0.73783 11.8941C0.737063 13.9661 1.28083 15.9886 2.31439 17.7714L0.638672 23.8632L6.90032 22.2285C8.62555 23.1652 10.568 23.6588 12.5447 23.6596H12.5497C19.0595 23.6596 24.3588 18.3852 24.3616 11.9036C24.3627 8.76218 23.1351 5.80846 20.9052 3.58634ZM12.5498 21.6741H12.546C10.784 21.6732 9.05616 21.2022 7.54909 20.3119L7.19042 20.1002L3.47463 21.0701L4.46669 17.4645L4.23301 17.0949C3.25018 15.539 2.73133 13.741 2.73209 11.8949C2.73424 6.50733 7.13815 2.12432 12.5535 2.12432C15.1759 2.1254 17.6406 3.14308 19.4944 4.9899C21.348 6.83672 22.368 9.29178 22.3672 11.9028C22.3649 17.2905 17.9608 21.6741 12.5498 21.6741Z" fill="white"/>
<defs>
<linearGradient id="paint0_linear_3155_27251" x1="12.5002" y1="23.8632" x2="12.5002" y2="0.138711" gradientUnits="userSpaceOnUse">
<stop stop-color="#20B038"/>
<stop offset="1" stop-color="#60D66A"/>
</linearGradient>
</defs>
</svg>
