<svg width="148" height="148" viewBox="0 0 148 148" fill="none" xmlns="http://www.w3.org/2000/svg">
<path d="M120 83.5L75 129.5C137.8 46.7 111.833 22 91 20L102.5 18.5C122.5 20.1 130.5 32.5 132 38.5C141.6 57.3 128 76.3333 120 83.5Z" fill="#E9ECF6"/>
<path d="M74.0006 30.8333C83.2506 21.5833 90.8973 18.5 101.751 18.5C110.746 18.5 119.373 22.0734 125.733 28.434C132.094 34.7946 135.667 43.4214 135.667 52.4167C135.667 66.5383 126.356 77.33 117.167 86.3333L74.0006 129.5L30.834 86.3333C21.584 77.3917 12.334 66.6 12.334 52.4167C12.334 43.4214 15.9073 34.7946 22.2679 28.434C28.6286 22.0734 37.2554 18.5 46.2507 18.5C57.104 18.5 64.7506 21.5833 74.0006 30.8333ZM74.0006 30.8333L61.6673 43.1667L80.1673 61.6667L67.834 74L74.0006 80.1667" stroke="black" stroke-width="2" stroke-linecap="round" stroke-linejoin="round"/>
</svg>
