<svg width="149" height="149" viewBox="0 0 149 149" fill="none" xmlns="http://www.w3.org/2000/svg">
<g clip-path="url(#clip0_4669_117813)">
<path d="M25 117.5C25 111.149 30.1487 106 36.5 106H124V122C124 125.866 120.866 129 117 129H36.5C30.1487 129 25 123.851 25 117.5Z" fill="#E9ECF6"/>
<path d="M92.9999 80.6663C92.9999 75.7598 91.0508 71.0543 87.5813 67.5849C84.1119 64.1154 79.4064 62.1663 74.4999 62.1663M74.4999 62.1663C69.5934 62.1663 64.8878 64.1154 61.4184 67.5849C57.949 71.0543 55.9999 75.7598 55.9999 80.6663M74.4999 62.1663C81.3114 62.1663 86.8332 56.6445 86.8332 49.833C86.8332 43.0215 81.3114 37.4997 74.4999 37.4997C67.6883 37.4997 62.1665 43.0215 62.1665 49.833C62.1665 56.6445 67.6883 62.1663 74.4999 62.1663ZM25.1665 120.75C25.1665 84.6262 25.1665 28.2497 25.1665 28.2497C25.1665 24.1609 26.7908 20.2396 29.682 17.3484C32.5732 14.4573 36.4944 12.833 40.5832 12.833H117.667C119.302 12.833 120.871 13.4827 122.027 14.6392C123.183 15.7957 123.833 17.3642 123.833 18.9997V123C123.833 124.635 123.183 126.204 122.027 127.36C120.871 128.517 119.302 129.166 117.667 129.166H40.5832C40.5832 129.166 31.9999 129.499 29.682 127.999C27.3641 126.499 24.9999 123.999 25.1665 120.75ZM25.1665 120.75C25.1665 116.661 26.7908 112.74 29.682 109.848C32.5732 106.957 36.4944 105.333 40.5832 105.333H123.833" stroke="black" stroke-width="2" stroke-linecap="round" stroke-linejoin="round"/>
<rect x="103" y="2" width="42" height="42" rx="21" fill="#2CB5A7"/>
<rect x="103" y="2" width="42" height="42" rx="21" stroke="white" stroke-width="4"/>
<path d="M124.804 27.372H123.208L122.508 13.008H125.504L124.804 27.372ZM122.256 31.488C122.256 30.7973 122.424 30.312 122.76 30.032C123.096 29.752 123.507 29.612 123.992 29.612C124.459 29.612 124.86 29.752 125.196 30.032C125.551 30.312 125.728 30.7973 125.728 31.488C125.728 32.16 125.551 32.6453 125.196 32.944C124.86 33.2427 124.459 33.392 123.992 33.392C123.507 33.392 123.096 33.2427 122.76 32.944C122.424 32.6453 122.256 32.16 122.256 31.488Z" fill="white"/>
</g>
<defs>
<clipPath id="clip0_4669_117813">
<rect width="148" height="148" fill="white" transform="translate(0.5 0.5)"/>
</clipPath>
</defs>
</svg>
