<svg width="160" height="27" viewBox="0 0 160 27" fill="none" xmlns="http://www.w3.org/2000/svg">
<g clip-path="url(#clip0_1184_9063)">
<path d="M0 24.427V1.19275H4.78707C5.22525 1.19275 5.5977 1.35707 5.91538 1.67474C6.2221 1.99242 6.37546 2.39773 6.37546 2.86877V21.1079H22.6975V26.0045H0V24.4161V24.427Z" fill="#2CB5A7"/>
<path d="M25.458 24.427V2.83591V1.19275H31.8335V2.83591V24.3832V26.0154H25.458V24.427Z" fill="#2CB5A7"/>
<path d="M34.2109 1.19275H39.491C39.9291 1.19275 40.3344 1.34611 40.7069 1.66379C41.0793 1.98147 41.3423 2.36487 41.5066 2.83591L45.976 16.5508L50.1058 2.83591C50.4344 1.74047 51.1026 1.19275 52.1214 1.19275H55.2324C56.2512 1.19275 56.9194 1.74047 57.248 2.83591L61.3779 16.5508L65.8473 2.83591C66.0006 2.36487 66.2745 1.97051 66.6469 1.66379C67.0194 1.35707 67.4247 1.19275 67.8629 1.19275H73.2305L64.478 26.0154H58.4202L53.6988 10.9203L49.569 24.2518L48.9446 26.0154H42.8649L42.2515 24.2518L34.2109 1.19275Z" fill="#2CB5A7"/>
<path d="M76.374 7.94066C77.5242 3.44936 81.2706 1.2037 87.6022 1.19275H96.7163C97.1325 1.19275 97.4831 1.35707 97.7569 1.67474C98.0308 2.00337 98.1732 2.37582 98.1732 2.80305V26.0154H91.7978V20.0234H79.7698L78.2252 26.0154H71.7402L76.363 7.94066H76.374ZM81.0296 15.1267H91.7978V6.08937H86.9778C85.8933 6.08937 84.9512 6.40704 84.1406 7.03145C83.33 7.65585 82.7932 8.51029 82.5084 9.56191L81.0186 15.1158L81.0296 15.1267Z" fill="#2CB5A7"/>
<path d="M103.016 24.3942V2.83591C103.016 2.38678 103.169 2.00337 103.476 1.67474C103.782 1.34611 104.155 1.19275 104.593 1.19275H109.566C109.961 1.19275 110.377 1.35707 110.815 1.67474C111.253 1.99242 111.615 2.38678 111.9 2.83591L122.12 18.917V1.19275H128.211V26.0154H121.003C120.565 26.0154 120.115 25.8621 119.644 25.5444C119.184 25.2267 118.812 24.8433 118.549 24.3942L109.194 9.54V26.0154H103.016V24.3942Z" fill="#2CB5A7"/>
<path d="M160 26.0154H133.173V0.984619H160V26.0154ZM133.666 25.5225H159.518V1.47757H133.666V25.5225Z" fill="#2CB5A7"/>
<path d="M147.895 2.61682H145.441V4.90629H147.895V2.61682Z" fill="#2CB5A7"/>
<path d="M142.188 10.8217H150.678C151.861 10.8217 152.792 10.4164 153.471 9.58382C154.063 8.87178 154.282 7.95162 154.282 6.86713V2.61682H151.499L151.521 6.11128C151.521 7.4258 151.028 8.09402 150.075 8.09402H144.061C141.969 8.09402 141.52 7.4258 141.52 6.04555V2.61682H138.737V7.46962C138.748 9.56191 140.008 10.8107 142.188 10.8107" fill="#2CB5A7"/>
<path d="M147.238 24.5475H150.842V22.2581H148.881C148.717 23.0796 148.06 24.2189 147.249 24.5475" fill="#2CB5A7"/>
<path d="M137.587 2.61682H134.805V22.0938V24.3832H137.587V22.2142V2.61682Z" fill="#2CB5A7"/>
<path d="M154.435 21.1079H154.928C156.122 21.1079 157.009 20.7464 157.678 19.9138C158.269 19.2018 158.368 18.2597 158.368 17.1862V2.61682H155.421V16.3646C155.421 17.6791 155.235 18.4897 154.282 18.4897H153.986C154.205 17.8653 154.315 17.1971 154.315 16.4413L154.293 11.939H151.51L151.456 16.5399C151.456 17.8325 150.985 18.4897 150.032 18.4897L148.104 18.435V16.5946C148.104 13.8999 146.197 11.95 143.601 11.95C141.005 11.95 139 13.7903 139 16.5289C139 19.2675 140.994 21.1079 143.645 21.1079H145.277C145.025 21.8199 144.291 22.269 143.251 22.269L138.727 22.1814V24.3723H143.306C146.066 24.3723 147.731 23.3316 148.049 21.0969H154.424L154.435 21.1079ZM143.612 18.435C142.561 18.435 141.87 17.5586 141.87 16.4084C141.87 15.3349 142.44 14.5023 143.514 14.5023C144.587 14.5023 145.255 15.2692 145.255 16.4741V18.4459H143.612V18.435Z" fill="#2CB5A7"/>
<path d="M154.271 22.2581H151.981V24.5475H154.271V22.2581Z" fill="#2CB5A7"/>
<path d="M158.368 20.7793C157.919 21.6776 156.9 22.2472 155.421 22.2472V24.5367H158.368V20.7793Z" fill="#2CB5A7"/>
<path d="M139.712 11.9499C140.173 11.7199 140.83 11.3584 141.093 11.194C141.312 11.0516 141.323 11.0516 141.356 11.0516C141.367 11.0516 141.378 11.0626 141.378 11.0735C141.378 11.0955 141.367 11.1174 141.356 11.1393C141.213 11.4241 141.038 11.6979 140.939 11.7965C140.863 11.8732 140.731 11.9609 140.567 12.0375C140.173 12.2347 139.723 12.4428 139.461 12.5633C139.121 12.7058 138.738 12.7715 138.299 12.7715H138.047C138.047 12.7715 137.971 12.7496 137.971 12.7277C137.971 12.7167 138.004 12.6948 138.047 12.6729C138.058 12.6729 138.069 12.6619 138.091 12.651C138.135 12.6291 138.201 12.6181 138.245 12.5962L138.551 12.4648C138.979 12.2785 139.373 12.1033 139.712 11.9389" fill="#2CB5A7"/>
<path d="M150.075 14.9953L149.615 14.7543C148.805 14.3271 148.761 14.2285 148.761 13.7903C148.761 13.2755 149.549 11.7528 149.9 11.7528C149.922 11.7528 149.933 11.7638 149.933 11.7857C149.933 11.8952 149.462 12.914 149.462 13.1221C149.462 13.3412 149.484 13.396 150.02 13.6698L150.481 13.9108L150.064 14.9844L150.075 14.9953Z" fill="#2CB5A7"/>
</g>
<defs>
<clipPath id="clip0_1184_9063">
<rect width="160" height="25.0308" fill="white" transform="translate(0 0.984619)"/>
</clipPath>
</defs>
</svg>
