<svg width="160" height="27" viewBox="0 0 160 27" fill="none" xmlns="http://www.w3.org/2000/svg">
<g clip-path="url(#clip0_952_16698)">
<path d="M0 24.427V1.19272H4.78707C5.22525 1.19272 5.5977 1.35703 5.91538 1.67471C6.2221 1.99239 6.37546 2.3977 6.37546 2.86874V21.1078H22.6975V26.0044H0V24.4161V24.427Z" fill="white"/>
<path d="M25.458 24.427V2.83588V1.19272H31.8335V2.83588V24.3832V26.0154H25.458V24.427Z" fill="white"/>
<path d="M34.2109 1.19272H39.491C39.9291 1.19272 40.3344 1.34608 40.7069 1.66376C41.0793 1.98144 41.3423 2.36484 41.5066 2.83588L45.976 16.5508L50.1058 2.83588C50.4344 1.74044 51.1026 1.19272 52.1214 1.19272H55.2324C56.2512 1.19272 56.9194 1.74044 57.248 2.83588L61.3779 16.5508L65.8473 2.83588C66.0006 2.36484 66.2745 1.97048 66.6469 1.66376C67.0194 1.35703 67.4247 1.19272 67.8629 1.19272H73.2305L64.478 26.0154H58.4202L53.6988 10.9202L49.569 24.2517L48.9446 26.0154H42.8649L42.2515 24.2517L34.2109 1.19272Z" fill="white"/>
<path d="M76.374 7.94063C77.5242 3.44933 81.2706 1.20367 87.6022 1.19272H96.7163C97.1325 1.19272 97.4831 1.35703 97.7569 1.67471C98.0308 2.00334 98.1732 2.37579 98.1732 2.80302V26.0154H91.7978V20.0233H79.7698L78.2252 26.0154H71.7402L76.363 7.94063H76.374ZM81.0296 15.1267H91.7978V6.08934H86.9778C85.8933 6.08934 84.9512 6.40701 84.1406 7.03142C83.33 7.65582 82.7932 8.51026 82.5084 9.56188L81.0186 15.1158L81.0296 15.1267Z" fill="white"/>
<path d="M103.016 24.3941V2.83588C103.016 2.38675 103.169 2.00334 103.476 1.67471C103.782 1.34608 104.155 1.19272 104.593 1.19272H109.566C109.961 1.19272 110.377 1.35703 110.815 1.67471C111.253 1.99239 111.615 2.38675 111.9 2.83588L122.12 18.9169V1.19272H128.211V26.0154H121.003C120.565 26.0154 120.115 25.862 119.644 25.5444C119.184 25.2267 118.812 24.8433 118.549 24.3941L109.194 9.53997V26.0154H103.016V24.3941Z" fill="white"/>
<path d="M160 26.0154H133.173V0.984558H160V26.0154ZM133.666 25.5224H159.518V1.47751H133.666V25.5224Z" fill="white"/>
<path d="M147.895 2.61676H145.441V4.90623H147.895V2.61676Z" fill="white"/>
<path d="M142.188 10.8216H150.678C151.861 10.8216 152.792 10.4163 153.471 9.58376C154.063 8.87172 154.282 7.95155 154.282 6.86707V2.61676H151.499L151.521 6.11121C151.521 7.42574 151.028 8.09396 150.075 8.09396H144.061C141.969 8.09396 141.52 7.42574 141.52 6.04549V2.61676H138.737V7.46956C138.748 9.56185 140.008 10.8107 142.188 10.8107" fill="white"/>
<path d="M147.238 24.5475H150.842V22.258H148.881C148.717 23.0796 148.06 24.2188 147.249 24.5475" fill="white"/>
<path d="M137.587 2.61676H134.805V22.0937V24.3832H137.587V22.2142V2.61676Z" fill="white"/>
<path d="M154.435 21.1078H154.928C156.122 21.1078 157.009 20.7463 157.678 19.9138C158.269 19.2017 158.368 18.2596 158.368 17.1861V2.61676H155.421V16.3645C155.421 17.6791 155.235 18.4897 154.282 18.4897H153.986C154.205 17.8653 154.315 17.1971 154.315 16.4412L154.293 11.939H151.51L151.456 16.5398C151.456 17.8324 150.985 18.4897 150.032 18.4897L148.104 18.4349V16.5946C148.104 13.8998 146.197 11.9499 143.601 11.9499C141.005 11.9499 139 13.7902 139 16.5288C139 19.2675 140.994 21.1078 143.645 21.1078H145.277C145.025 21.8198 144.291 22.269 143.251 22.269L138.727 22.1813V24.3722H143.306C146.066 24.3722 147.731 23.3315 148.049 21.0968H154.424L154.435 21.1078ZM143.612 18.4349C142.561 18.4349 141.87 17.5586 141.87 16.4084C141.87 15.3348 142.44 14.5023 143.514 14.5023C144.587 14.5023 145.255 15.2691 145.255 16.4741V18.4459H143.612V18.4349Z" fill="white"/>
<path d="M154.271 22.258H151.981V24.5475H154.271V22.258Z" fill="white"/>
<path d="M158.368 20.7792C157.919 21.6775 156.9 22.2471 155.421 22.2471V24.5366H158.368V20.7792Z" fill="white"/>
<path d="M139.712 11.9499C140.173 11.7199 140.83 11.3584 141.093 11.1941C141.312 11.0517 141.323 11.0517 141.356 11.0517C141.367 11.0517 141.378 11.0626 141.378 11.0736C141.378 11.0955 141.367 11.1174 141.356 11.1393C141.213 11.4241 141.038 11.698 140.939 11.7966C140.863 11.8732 140.731 11.9609 140.567 12.0376C140.173 12.2347 139.723 12.4429 139.461 12.5634C139.121 12.7058 138.738 12.7715 138.299 12.7715H138.047C138.047 12.7715 137.971 12.7496 137.971 12.7277C137.971 12.7167 138.004 12.6948 138.047 12.6729C138.058 12.6729 138.069 12.662 138.091 12.651C138.135 12.6291 138.201 12.6181 138.245 12.5962L138.551 12.4648C138.979 12.2786 139.373 12.1033 139.712 11.939" fill="white"/>
<path d="M150.075 14.9952L149.615 14.7543C148.805 14.327 148.761 14.2284 148.761 13.7903C148.761 13.2754 149.549 11.7527 149.9 11.7527C149.922 11.7527 149.933 11.7637 149.933 11.7856C149.933 11.8952 149.462 12.9139 149.462 13.122C149.462 13.3411 149.484 13.3959 150.02 13.6698L150.481 13.9108L150.064 14.9843L150.075 14.9952Z" fill="white"/>
</g>
<defs>
<clipPath id="clip0_952_16698">
<rect width="160" height="25.0308" fill="white" transform="translate(0 0.984589)"/>
</clipPath>
</defs>
</svg>
